<svg width="1424" height="280" viewBox="0 0 1424 280" fill="none" xmlns="http://www.w3.org/2000/svg">
<path d="M8 34V19L25 11.5H87L98 16.5H124L132.5 11.5L1073 12.5L1087 20.5H1185.5L1196.5 27H1377.5L1410.5 38V144.5L1395.5 156V190.5L1411.5 210V254.5L1398.5 264.5L1260 263.5L1247.5 255L694.5 254L669 265.5L53 266.5L27 254.5V177L12.5 167V126L24.5 113.5V78L16.5 72.5H8V57.5L12.5 51.5V38.5L8 34Z" fill="url(#paint0_linear_27_110)"/>
<path d="M697 266H1240.5" stroke="#9A9DAB" stroke-width="5"/>
<path d="M8 55.5V33.5L12 37.5V50.5L8 55.5Z" fill="#9A9DAB" stroke="#9A9DAB" stroke-width="2"/>
<path d="M1412 223V245L1408 241V228L1412 223Z" fill="#9A9DAB" stroke="#9A9DAB" stroke-width="2"/>
<path d="M1351 264.5L1299 264.5L1310.36 261.5L1337.55 261.5L1351 264.5Z" fill="#9A9DAB" stroke="#9A9DAB" stroke-width="2"/>
<path d="M87.8613 11.3498L132 11.3498L124 15.8599L98.0541 15.8599L87.8613 11.3498Z" fill="#9A9DAB" stroke="#9A9DAB" stroke-width="2"/>
<path d="M13 137V168.5L26 176.5V255L52 267H514" stroke="#9A9DAB" stroke-width="2"/>
<path d="M1260 264.5H1398.5L1412 255.5V211" stroke="#9A9DAB" stroke-width="2"/>
<path d="M1411 138.5V37.5L1380 27H1248L1232.5 18.5" stroke="#9A9DAB" stroke-width="2"/>
<path d="M575.5 266H669L694 254H1243.5" stroke="#9A9DAB" stroke-width="2"/>
<path d="M1198 27.5L1185.5 19.5H1088L1073.5 11.5H956.5" stroke="#9A9DAB" stroke-width="2"/>
<path d="M1222.5 28.5L1209 19.5" stroke="#9A9DAB" stroke-width="2"/>
<path d="M1367.5 13H1113" stroke="#9A9DAB" stroke-width="2"/>
<path d="M169.5 11H25.5L8 19V63.5" stroke="#9A9DAB" stroke-width="2"/>
<path d="M924 13H207.5" stroke="#9A9DAB" stroke-width="2"/>
<path d="M9 122V73H16.1591L24 78.5V113L16.1591 122H9Z" stroke="#9A9DAB" stroke-width="2"/>
<line x1="17" y1="79" x2="24" y2="79" stroke="#9A9DAB" stroke-width="2"/>
<line x1="17" y1="95" x2="24" y2="95" stroke="#9A9DAB" stroke-width="2"/>
<line x1="17" y1="107" x2="24" y2="107" stroke="#9A9DAB" stroke-width="2"/>
<line x1="17" y1="87" x2="24" y2="87" stroke="#9A9DAB" stroke-width="2"/>
<line x1="17" y1="103" x2="24" y2="103" stroke="#9A9DAB" stroke-width="2"/>
<line x1="17" y1="115" x2="22" y2="115" stroke="#9A9DAB" stroke-width="2"/>
<line x1="17" y1="83" x2="24" y2="83" stroke="#9A9DAB" stroke-width="2"/>
<line x1="17" y1="99" x2="24" y2="99" stroke="#9A9DAB" stroke-width="2"/>
<line x1="17" y1="111" x2="24" y2="111" stroke="#9A9DAB" stroke-width="2"/>
<line x1="17" y1="91" x2="24" y2="91" stroke="#9A9DAB" stroke-width="2"/>
<path d="M1411 199V150H1403.84L1396 155.5V190L1403.84 199H1411Z" stroke="#9A9DAB" stroke-width="2"/>
<line y1="-1" x2="7" y2="-1" transform="matrix(-1 0 0 1 1403 157)" stroke="#9A9DAB" stroke-width="2"/>
<line y1="-1" x2="7" y2="-1" transform="matrix(-1 0 0 1 1403 173)" stroke="#9A9DAB" stroke-width="2"/>
<line y1="-1" x2="7" y2="-1" transform="matrix(-1 0 0 1 1403 185)" stroke="#9A9DAB" stroke-width="2"/>
<line y1="-1" x2="7" y2="-1" transform="matrix(-1 0 0 1 1403 165)" stroke="#9A9DAB" stroke-width="2"/>
<line y1="-1" x2="7" y2="-1" transform="matrix(-1 0 0 1 1403 181)" stroke="#9A9DAB" stroke-width="2"/>
<line y1="-1" x2="5" y2="-1" transform="matrix(-1 0 0 1 1403 193)" stroke="#9A9DAB" stroke-width="2"/>
<line y1="-1" x2="7" y2="-1" transform="matrix(-1 0 0 1 1403 161)" stroke="#9A9DAB" stroke-width="2"/>
<line y1="-1" x2="7" y2="-1" transform="matrix(-1 0 0 1 1403 177)" stroke="#9A9DAB" stroke-width="2"/>
<line y1="-1" x2="7" y2="-1" transform="matrix(-1 0 0 1 1403 189)" stroke="#9A9DAB" stroke-width="2"/>
<line y1="-1" x2="7" y2="-1" transform="matrix(-1 0 0 1 1403 169)" stroke="#9A9DAB" stroke-width="2"/>
<path d="M1244 16H1254L1261.5 24H1251.5L1244 16Z" fill="#9A9DAB"/>
<path d="M1261.5 16H1271.5L1279 24H1269L1261.5 16Z" fill="#9A9DAB"/>
<path d="M1279 16H1289L1296.5 24H1286.5L1279 16Z" fill="#9A9DAB"/>
<path d="M1296.5 16H1306.5L1314 24H1304L1296.5 16Z" fill="#9A9DAB"/>
<path d="M1314 16H1324L1331.5 24H1321.5L1314 16Z" fill="#9A9DAB"/>
<path d="M1331.5 16H1341.5L1349 24H1339L1331.5 16Z" fill="#9A9DAB"/>
<path d="M1349 16H1359L1366.5 24H1356.5L1349 16Z" fill="#9A9DAB"/>
<g filter="url(#filter0_dd_27_110)">
<circle cx="13" cy="137" r="3" fill="#9A9DAB"/>
</g>
<g filter="url(#filter1_dd_27_110)">
<circle cx="514" cy="267" r="3" fill="#9A9DAB"/>
</g>
<g filter="url(#filter2_dd_27_110)">
<circle cx="576" cy="266" r="3" fill="#9A9DAB"/>
</g>
<g filter="url(#filter3_dd_27_110)">
<circle cx="207" cy="13" r="3" fill="#9A9DAB"/>
</g>
<g filter="url(#filter4_dd_27_110)">
<circle cx="921" cy="13" r="3" fill="#9A9DAB"/>
</g>
<g filter="url(#filter5_dd_27_110)">
<circle cx="1411" cy="139" r="3" fill="#9A9DAB"/>
</g>
<rect x="691" y="260" width="12" height="12" fill="#9A9DAB"/>
<rect x="1232" y="260" width="12" height="12" fill="#9A9DAB"/>
<path d="M12 176L21 181.398V255H12L12 176Z" fill="#9A9DAB"/>
<defs>
<filter id="filter0_dd_27_110" x="0" y="124" width="26" height="26" filterUnits="userSpaceOnUse" color-interpolation-filters="sRGB">
<feFlood flood-opacity="0" result="BackgroundImageFix"/>
<feColorMatrix in="SourceAlpha" type="matrix" values="0 0 0 0 0 0 0 0 0 0 0 0 0 0 0 0 0 0 127 0" result="hardAlpha"/>
<feOffset/>
<feGaussianBlur stdDeviation="5"/>
<feComposite in2="hardAlpha" operator="out"/>
<feColorMatrix type="matrix" values="0 0 0 0 0.633909 0 0 0 0 0.579167 0 0 0 0 1 0 0 0 0.62 0"/>
<feBlend mode="normal" in2="BackgroundImageFix" result="effect1_dropShadow_27_110"/>
<feColorMatrix in="SourceAlpha" type="matrix" values="0 0 0 0 0 0 0 0 0 0 0 0 0 0 0 0 0 0 127 0" result="hardAlpha"/>
<feOffset dy="4"/>
<feGaussianBlur stdDeviation="2"/>
<feComposite in2="hardAlpha" operator="out"/>
<feColorMatrix type="matrix" values="0 0 0 0 0 0 0 0 0 0 0 0 0 0 0 0 0 0 0.25 0"/>
<feBlend mode="normal" in2="effect1_dropShadow_27_110" result="effect2_dropShadow_27_110"/>
<feBlend mode="normal" in="SourceGraphic" in2="effect2_dropShadow_27_110" result="shape"/>
</filter>
<filter id="filter1_dd_27_110" x="501" y="254" width="26" height="26" filterUnits="userSpaceOnUse" color-interpolation-filters="sRGB">
<feFlood flood-opacity="0" result="BackgroundImageFix"/>
<feColorMatrix in="SourceAlpha" type="matrix" values="0 0 0 0 0 0 0 0 0 0 0 0 0 0 0 0 0 0 127 0" result="hardAlpha"/>
<feOffset/>
<feGaussianBlur stdDeviation="5"/>
<feComposite in2="hardAlpha" operator="out"/>
<feColorMatrix type="matrix" values="0 0 0 0 0.633909 0 0 0 0 0.579167 0 0 0 0 1 0 0 0 0.62 0"/>
<feBlend mode="normal" in2="BackgroundImageFix" result="effect1_dropShadow_27_110"/>
<feColorMatrix in="SourceAlpha" type="matrix" values="0 0 0 0 0 0 0 0 0 0 0 0 0 0 0 0 0 0 127 0" result="hardAlpha"/>
<feOffset dy="4"/>
<feGaussianBlur stdDeviation="2"/>
<feComposite in2="hardAlpha" operator="out"/>
<feColorMatrix type="matrix" values="0 0 0 0 0 0 0 0 0 0 0 0 0 0 0 0 0 0 0.25 0"/>
<feBlend mode="normal" in2="effect1_dropShadow_27_110" result="effect2_dropShadow_27_110"/>
<feBlend mode="normal" in="SourceGraphic" in2="effect2_dropShadow_27_110" result="shape"/>
</filter>
<filter id="filter2_dd_27_110" x="563" y="253" width="26" height="26" filterUnits="userSpaceOnUse" color-interpolation-filters="sRGB">
<feFlood flood-opacity="0" result="BackgroundImageFix"/>
<feColorMatrix in="SourceAlpha" type="matrix" values="0 0 0 0 0 0 0 0 0 0 0 0 0 0 0 0 0 0 127 0" result="hardAlpha"/>
<feOffset/>
<feGaussianBlur stdDeviation="5"/>
<feComposite in2="hardAlpha" operator="out"/>
<feColorMatrix type="matrix" values="0 0 0 0 0.633909 0 0 0 0 0.579167 0 0 0 0 1 0 0 0 0.62 0"/>
<feBlend mode="normal" in2="BackgroundImageFix" result="effect1_dropShadow_27_110"/>
<feColorMatrix in="SourceAlpha" type="matrix" values="0 0 0 0 0 0 0 0 0 0 0 0 0 0 0 0 0 0 127 0" result="hardAlpha"/>
<feOffset dy="4"/>
<feGaussianBlur stdDeviation="2"/>
<feComposite in2="hardAlpha" operator="out"/>
<feColorMatrix type="matrix" values="0 0 0 0 0 0 0 0 0 0 0 0 0 0 0 0 0 0 0.25 0"/>
<feBlend mode="normal" in2="effect1_dropShadow_27_110" result="effect2_dropShadow_27_110"/>
<feBlend mode="normal" in="SourceGraphic" in2="effect2_dropShadow_27_110" result="shape"/>
</filter>
<filter id="filter3_dd_27_110" x="194" y="0" width="26" height="26" filterUnits="userSpaceOnUse" color-interpolation-filters="sRGB">
<feFlood flood-opacity="0" result="BackgroundImageFix"/>
<feColorMatrix in="SourceAlpha" type="matrix" values="0 0 0 0 0 0 0 0 0 0 0 0 0 0 0 0 0 0 127 0" result="hardAlpha"/>
<feOffset/>
<feGaussianBlur stdDeviation="5"/>
<feComposite in2="hardAlpha" operator="out"/>
<feColorMatrix type="matrix" values="0 0 0 0 0.633909 0 0 0 0 0.579167 0 0 0 0 1 0 0 0 0.62 0"/>
<feBlend mode="normal" in2="BackgroundImageFix" result="effect1_dropShadow_27_110"/>
<feColorMatrix in="SourceAlpha" type="matrix" values="0 0 0 0 0 0 0 0 0 0 0 0 0 0 0 0 0 0 127 0" result="hardAlpha"/>
<feOffset dy="4"/>
<feGaussianBlur stdDeviation="2"/>
<feComposite in2="hardAlpha" operator="out"/>
<feColorMatrix type="matrix" values="0 0 0 0 0 0 0 0 0 0 0 0 0 0 0 0 0 0 0.25 0"/>
<feBlend mode="normal" in2="effect1_dropShadow_27_110" result="effect2_dropShadow_27_110"/>
<feBlend mode="normal" in="SourceGraphic" in2="effect2_dropShadow_27_110" result="shape"/>
</filter>
<filter id="filter4_dd_27_110" x="908" y="0" width="26" height="26" filterUnits="userSpaceOnUse" color-interpolation-filters="sRGB">
<feFlood flood-opacity="0" result="BackgroundImageFix"/>
<feColorMatrix in="SourceAlpha" type="matrix" values="0 0 0 0 0 0 0 0 0 0 0 0 0 0 0 0 0 0 127 0" result="hardAlpha"/>
<feOffset/>
<feGaussianBlur stdDeviation="5"/>
<feComposite in2="hardAlpha" operator="out"/>
<feColorMatrix type="matrix" values="0 0 0 0 0.633909 0 0 0 0 0.579167 0 0 0 0 1 0 0 0 0.62 0"/>
<feBlend mode="normal" in2="BackgroundImageFix" result="effect1_dropShadow_27_110"/>
<feColorMatrix in="SourceAlpha" type="matrix" values="0 0 0 0 0 0 0 0 0 0 0 0 0 0 0 0 0 0 127 0" result="hardAlpha"/>
<feOffset dy="4"/>
<feGaussianBlur stdDeviation="2"/>
<feComposite in2="hardAlpha" operator="out"/>
<feColorMatrix type="matrix" values="0 0 0 0 0 0 0 0 0 0 0 0 0 0 0 0 0 0 0.25 0"/>
<feBlend mode="normal" in2="effect1_dropShadow_27_110" result="effect2_dropShadow_27_110"/>
<feBlend mode="normal" in="SourceGraphic" in2="effect2_dropShadow_27_110" result="shape"/>
</filter>
<filter id="filter5_dd_27_110" x="1398" y="126" width="26" height="26" filterUnits="userSpaceOnUse" color-interpolation-filters="sRGB">
<feFlood flood-opacity="0" result="BackgroundImageFix"/>
<feColorMatrix in="SourceAlpha" type="matrix" values="0 0 0 0 0 0 0 0 0 0 0 0 0 0 0 0 0 0 127 0" result="hardAlpha"/>
<feOffset/>
<feGaussianBlur stdDeviation="5"/>
<feComposite in2="hardAlpha" operator="out"/>
<feColorMatrix type="matrix" values="0 0 0 0 0.633909 0 0 0 0 0.579167 0 0 0 0 1 0 0 0 0.62 0"/>
<feBlend mode="normal" in2="BackgroundImageFix" result="effect1_dropShadow_27_110"/>
<feColorMatrix in="SourceAlpha" type="matrix" values="0 0 0 0 0 0 0 0 0 0 0 0 0 0 0 0 0 0 127 0" result="hardAlpha"/>
<feOffset dy="4"/>
<feGaussianBlur stdDeviation="2"/>
<feComposite in2="hardAlpha" operator="out"/>
<feColorMatrix type="matrix" values="0 0 0 0 0 0 0 0 0 0 0 0 0 0 0 0 0 0 0.25 0"/>
<feBlend mode="normal" in2="effect1_dropShadow_27_110" result="effect2_dropShadow_27_110"/>
<feBlend mode="normal" in="SourceGraphic" in2="effect2_dropShadow_27_110" result="shape"/>
</filter>
<linearGradient id="paint0_linear_27_110" x1="708.5" y1="12.5" x2="708.5" y2="267.5" gradientUnits="userSpaceOnUse">
<stop stop-color="#9A9DAB" stop-opacity="0.19"/>
<stop offset="1" stop-color="#9A9DAB" stop-opacity="0"/>
</linearGradient>
</defs>
</svg>
