<svg width="29" height="30" viewBox="0 0 29 30" fill="none" xmlns="http://www.w3.org/2000/svg">
                        <path
                            d="M19.5799 8.29079C21.1799 11.4908 26.2465 13.2908 28.5799 13.7908C26.4132 13.7908 21.5799 13.4908 19.5799 12.2908C17.0799 10.7908 15.0798 9.7908 14.0799 6.29079C13.4656 4.14074 16.5799 -2.20921 17.0799 0.790788C17.5799 3.79079 17.5799 4.29079 19.5799 8.29079Z"
                            fill="#C7C7C7" />
                        <path
                            d="M19.5799 21.5C21.1799 18.3 26.2465 16.5 28.5799 16C26.4132 16 21.5799 16.3 19.5799 17.5C17.0799 19 15.0798 20 14.0799 23.5C13.4656 25.65 16.5799 32 17.0799 29C17.5799 26 17.5799 25.5 19.5799 21.5Z"
                            fill="#C7C7C7" />
                        <path d="M7 11.5L22 15L7 18C4.83333 17.6667 0.5 16.6 0.5 15C0.5 13.4 4.83333 12 7 11.5Z"
                            fill="#C7C7C7" />
                    </svg>