<svg width="29" height="30" viewBox="0 0 29 30" fill="none" xmlns="http://www.w3.org/2000/svg">
<path d="M9.4201 8.29079C7.8201 11.4908 2.7535 13.2908 0.420096 13.7908C2.5868 13.7908 7.4201 13.4908 9.4201 12.2908C11.9201 10.7908 13.9202 9.7908 14.9201 6.29079C15.5344 4.14074 12.4201 -2.20921 11.9201 0.790788C11.4201 3.79079 11.4201 4.29079 9.4201 8.29079Z" fill="#C7C7C7"/>
<path d="M9.4201 21.5C7.8201 18.3 2.7535 16.5 0.420096 16C2.5868 16 7.4201 16.3 9.4201 17.5C11.9201 19 13.9202 20 14.9201 23.5C15.5344 25.65 12.4201 32 11.9201 29C11.4201 26 11.4201 25.5 9.4201 21.5Z" fill="#C7C7C7"/>
<path d="M22 11.5L7 15L22 18C24.1667 17.6667 28.5 16.6 28.5 15C28.5 13.4 24.1667 12 22 11.5Z" fill="#C7C7C7"/>
</svg>
